<svg xmlns="http://www.w3.org/2000/svg" viewBox="0 0 64 64">
  <defs>
    <linearGradient id="bg" x1="0" y1="0" x2="1" y2="1">
      <stop offset="0" stop-color="#07111f"/>
      <stop offset="0.55" stop-color="#0d1630"/>
      <stop offset="1" stop-color="#170a28"/>
    </linearGradient>
    <linearGradient id="ring" x1="0" y1="0" x2="1" y2="1">
      <stop offset="0" stop-color="#61f7ff"/>
      <stop offset="1" stop-color="#ff4fd8"/>
    </linearGradient>
    <filter id="glow" x="-50%" y="-50%" width="200%" height="200%">
      <feGaussianBlur stdDeviation="1.8" result="blur"/>
      <feMerge>
        <feMergeNode in="blur"/>
        <feMergeNode in="SourceGraphic"/>
      </feMerge>
    </filter>
  </defs>

  <rect width="64" height="64" rx="16" fill="url(#bg)"/>
  <path d="M10 22C16 12 31 8 44 12" fill="none" stroke="#ff4fd8" stroke-width="3" stroke-linecap="round" filter="url(#glow)"/>
  <path d="M42 8l5 4-6 2" fill="none" stroke="#ff4fd8" stroke-width="3" stroke-linecap="round" stroke-linejoin="round"/>
  <path d="M54 42C48 52 33 56 20 52" fill="none" stroke="#61f7ff" stroke-width="3" stroke-linecap="round" filter="url(#glow)"/>
  <path d="M22 56l-5-4 6-2" fill="none" stroke="#61f7ff" stroke-width="3" stroke-linecap="round" stroke-linejoin="round"/>

  <circle cx="32" cy="32" r="16" fill="none" stroke="url(#ring)" stroke-width="3.5" filter="url(#glow)"/>
  <path d="M32 16v32M16 32h32" stroke="#183456" stroke-width="1.5" opacity=".9"/>
  <path d="M20 24c4 3 20 3 24 0M20 40c4-3 20-3 24 0" fill="none" stroke="#183456" stroke-width="1.5" opacity=".9"/>

  <circle cx="32" cy="32" r="2.8" fill="#f4fbff"/>
  <path d="M32 32l0-8" stroke="#f4fbff" stroke-width="3" stroke-linecap="round"/>
  <path d="M32 32l7 4" stroke="#f4fbff" stroke-width="3" stroke-linecap="round"/>
</svg>
